<svg width="24" height="24" viewBox="0 0 24 24" fill="none" xmlns="http://www.w3.org/2000/svg">
<g clip-path="url(#clip0_5_24)">
<mask id="path-1-inside-1_5_24" fill="white">
<path fill-rule="evenodd" clip-rule="evenodd" d="M9.96383 3.88682C12.202 1.59556 15.6364 1.1801 18.3078 2.66342C18.5283 2.78586 18.5611 3.08313 18.3848 3.26356L14.1561 7.59254C14.0018 7.75057 14.0047 8.00382 14.1628 8.15819L15.3665 9.33408C15.5246 9.48844 15.7778 9.48548 15.9322 9.32745L20.2035 4.95481C20.3757 4.77852 20.6657 4.79831 20.7984 5.00599C22.4993 7.66824 22.211 11.2442 19.9086 13.6012C18.0394 15.5146 15.3361 16.1199 12.9395 15.4035C12.792 15.3594 12.6311 15.3971 12.5235 15.5072L7.21474 20.9419C6.05697 22.1271 4.15761 22.1494 2.97239 20.9916C1.78716 19.8338 1.7649 17.9345 2.92266 16.7493L8.23142 11.3146C8.33898 11.2045 8.37284 11.0427 8.32531 10.8963C7.55297 8.51713 8.09469 5.8003 9.96383 3.88682Z"/>
</mask>
<path d="M2.92266 16.7493L1.49197 15.3517L2.92266 16.7493ZM8.23142 11.3146L6.80073 9.91703L8.23142 11.3146ZM8.32531 10.8963L6.42303 11.5138L8.32531 10.8963ZM12.9395 15.4035L13.5123 13.4873L12.9395 15.4035ZM14.1561 7.59254L15.5868 8.99009L14.1561 7.59254ZM18.3848 3.26356L16.9541 1.86602L18.3848 3.26356ZM19.2787 0.914877C15.8393 -0.994814 11.4173 -0.463273 8.53314 2.48928L11.3945 5.28437C12.9867 3.65439 15.4334 3.35502 17.3369 4.41196L19.2787 0.914877ZM15.5868 8.99009L19.8155 4.6611L16.9541 1.86602L12.7254 6.195L15.5868 8.99009ZM16.7641 7.90338L15.5603 6.7275L12.7652 9.58888L13.969 10.7648L16.7641 7.90338ZM18.7728 3.55726L14.5015 7.9299L17.3629 10.725L21.6342 6.35235L18.7728 3.55726ZM21.3393 14.9987C24.3059 11.9617 24.6741 7.35763 22.4838 3.92923L19.113 6.08275C20.3244 7.97885 20.116 10.5266 18.4779 12.2036L21.3393 14.9987ZM12.3667 17.3198C15.4474 18.2406 18.9304 17.4647 21.3393 14.9987L18.4779 12.2036C17.1485 13.5645 15.2247 13.9992 13.5123 13.4873L12.3667 17.3198ZM11.0928 14.1097L5.78405 19.5443L8.64543 22.3394L13.9542 16.9047L11.0928 14.1097ZM5.78405 19.5443C5.39812 19.9394 4.765 19.9468 4.36993 19.5609L1.57484 22.4223C3.55021 24.3519 6.71582 24.3148 8.64543 22.3394L5.78405 19.5443ZM4.36993 19.5609C3.97485 19.175 3.96743 18.5419 4.35335 18.1468L1.49197 15.3517C-0.43763 17.3271 -0.400527 20.4927 1.57484 22.4223L4.36993 19.5609ZM4.35335 18.1468L9.66211 12.7121L6.80073 9.91703L1.49197 15.3517L4.35335 18.1468ZM8.53314 2.48928C6.12423 4.95533 5.43023 8.45554 6.42303 11.5138L10.2276 10.2787C9.67571 8.57873 10.0651 6.64528 11.3945 5.28437L8.53314 2.48928ZM9.66211 12.7121C10.3175 12.0412 10.4919 11.0929 10.2276 10.2787L6.42303 11.5138C6.25378 10.9924 6.36049 10.3677 6.80073 9.91703L9.66211 12.7121ZM13.5123 13.4873C12.6921 13.2422 11.7482 13.4387 11.0928 14.1097L13.9542 16.9047C13.5139 17.3554 12.8919 17.4767 12.3667 17.3198L13.5123 13.4873ZM21.6342 6.35235C20.9748 7.0274 19.7252 7.04092 19.113 6.08275L22.4838 3.92923C21.6063 2.55571 19.7766 2.52963 18.7728 3.55726L21.6342 6.35235ZM13.969 10.7648C14.9172 11.691 16.4367 11.6732 17.3629 10.725L14.5015 7.9299C15.119 7.29778 16.132 7.28591 16.7641 7.90338L13.969 10.7648ZM12.7254 6.195C11.7992 7.14318 11.817 8.66267 12.7652 9.58888L15.5603 6.7275C16.1924 7.34497 16.2043 8.35797 15.5868 8.99009L12.7254 6.195ZM17.3369 4.41196C16.315 3.84452 16.281 2.55506 16.9541 1.86602L19.8155 4.6611C20.8411 3.61121 20.7416 1.72719 19.2787 0.914877L17.3369 4.41196Z" fill="black" mask="url(#path-1-inside-1_5_24)"/>
</g>
<defs>
<clipPath id="clip0_5_24">
<rect width="24" height="24" fill="white"/>
</clipPath>
</defs>
</svg>
